<svg width="150" height="20" viewBox="0 0 150 20" fill="none" xmlns="http://www.w3.org/2000/svg">
<path d="M26.2826 18.2566C25.4262 18.2566 24.6435 17.6959 24.3336 16.8599L19.5057 3.83275C18.6547 1.55067 16.5166 0.0163794 14.1789 0.0163794C11.841 0.0163794 9.7029 1.55067 8.85709 3.83275L4.02932 16.8599C3.71942 17.6959 2.93657 18.2566 2.08022 18.2566H0V19.6864H13.1754C14.5886 19.6864 15.8862 18.7571 16.4011 17.3769L17.7774 13.6596C18.0925 12.8126 18.8596 12.2627 19.7264 12.2627C20.5931 12.2627 21.3654 12.8236 21.6753 13.6596L23.0517 17.3769C23.5613 18.7571 24.859 19.6864 26.2774 19.6864H28.3892V18.2566H26.2774H26.2826ZM4.82257 18.2566C5.01694 17.9928 5.18504 17.6959 5.30056 17.3769L10.1285 4.34974C10.7694 2.61205 12.3979 1.44614 14.1789 1.44614C15.9597 1.44614 17.5831 2.61205 18.2291 4.34974L18.7808 5.83996C18.2134 5.57596 17.5935 5.42199 16.9526 5.42199C15.0456 5.42199 13.3698 6.62631 12.6763 8.48491L9.57683 16.8544C9.26693 17.6904 8.48423 18.2513 7.62787 18.2513H4.82257V18.2566ZM16.506 13.1426L15.1297 16.8599C14.8198 17.6959 14.0369 18.2566 13.1807 18.2566H10.3754C10.5698 17.9928 10.7379 17.6959 10.8534 17.3769L13.9582 9.00741C14.4416 7.69856 15.6236 6.85726 16.9579 6.85726C18.2923 6.85726 19.4848 7.7206 19.9576 9.00741L20.6877 10.9816C20.3778 10.8881 20.0574 10.833 19.7264 10.833C18.2869 10.833 17.0209 11.7404 16.5009 13.1426H16.506Z" fill="white"/>
<path d="M39.2217 19.6866L32.4028 1.31421H35.0347L40.5244 16.1726L45.8409 1.31421H48.4466L41.8273 19.6866H39.2217Z" fill="white"/>
<path d="M47.5483 15.7493C47.5483 12.5488 50.5583 11.9164 53.1903 11.6029C55.2233 11.394 56.8781 11.3665 56.8781 10.2667C56.8781 8.66643 55.6226 7.53909 53.742 7.53909C51.8612 7.53909 50.4585 8.61699 50.259 10.2172H47.853C48.1051 7.40716 50.5374 5.43852 53.7944 5.43852C57.0516 5.43852 59.2369 7.48414 59.2369 10.4262V17.0141C59.2369 17.4594 59.4629 17.6683 59.9146 17.6683H60.6396V19.6866H59.3841C57.9814 19.6866 57.2039 19.0542 57.1251 17.8498C57.0988 17.7179 57.0725 17.5584 57.0725 17.4045C56.295 18.9772 54.8137 19.923 52.5337 19.923C49.4972 19.923 47.5166 18.3228 47.5429 15.7493H47.5483ZM56.8781 14.226V12.3617C56.3529 13.1756 54.9503 13.3351 53.3953 13.5166C51.6405 13.7255 49.9595 13.9895 49.9595 15.6447C49.9595 17.0085 51.1152 17.8498 52.9434 17.8498C55.2496 17.8498 56.8781 16.3541 56.8781 14.226Z" fill="white"/>
<path d="M62.3419 19.6866V5.77399H64.2698L64.5482 8.45201C65.3993 6.64284 66.9543 5.66947 69.1608 5.66947H69.6388V8.13857H69.1608C66.3764 8.13857 64.7479 9.79377 64.7479 12.5488V19.6866H62.3419Z" fill="white"/>
<path d="M70.8943 1.83656C70.8943 0.8413 71.6192 0.104379 72.5754 0.104379C73.5315 0.104379 74.2564 0.8413 74.2564 1.83656C74.2564 2.83198 73.5524 3.62384 72.5754 3.62384C71.5983 3.62384 70.8943 2.83749 70.8943 1.83656ZM71.3723 19.6864V5.77385H73.7784V19.6864H71.3723Z" fill="white"/>
<path d="M75.8849 15.7493C75.8849 12.5488 78.8951 11.9164 81.527 11.6029C83.5602 11.394 85.215 11.3665 85.215 10.2667C85.215 8.66643 83.9593 7.53909 82.0787 7.53909C80.198 7.53909 78.7954 8.61699 78.5957 10.2172H76.1896C76.4418 7.40716 78.8741 5.43852 82.1312 5.43852C85.3883 5.43852 87.5738 7.48414 87.5738 10.4262V17.0141C87.5738 17.4594 87.7996 17.6683 88.2515 17.6683H88.9764V19.6866H87.7208C86.3181 19.6866 85.5406 19.0542 85.4619 17.8498C85.4356 17.7179 85.4093 17.5584 85.4093 17.4045C84.6318 18.9772 83.1503 19.923 80.8704 19.923C77.8339 19.923 75.8535 18.3228 75.8797 15.7493H75.8849ZM85.215 14.226V12.3617C84.6896 13.1756 83.2869 13.3351 81.7319 13.5166C79.9774 13.7255 78.2963 13.9895 78.2963 15.6447C78.2963 17.0085 79.452 17.8498 81.2802 17.8498C83.5865 17.8498 85.215 16.3541 85.215 14.226Z" fill="white"/>
<path d="M95.8373 19.6866C93.1318 19.6866 91.6977 18.2678 91.6977 15.6172V7.90211H89.2917V5.77399H91.6977V1.31421H94.1037V5.77399H97.6393V7.90211H94.1037V15.5402C94.1037 16.8546 94.7288 17.5584 95.9108 17.5584H97.3923V19.6866H95.8373Z" fill="white"/>
<path d="M99.0419 1.83656C99.0419 0.8413 99.7669 0.104379 100.723 0.104379C101.679 0.104379 102.404 0.8413 102.404 1.83656C102.404 2.83198 101.7 3.62384 100.723 3.62384C99.7459 3.62384 99.0419 2.83749 99.0419 1.83656ZM99.5199 19.6864V5.77385H101.926V19.6864H99.5199Z" fill="white"/>
<path d="M104.006 12.5982C104.006 7.97909 106.917 5.43301 110.626 5.43301C114.886 5.43301 117.245 8.61148 117.245 12.5982C117.245 17.3494 114.434 20 110.626 20C106.339 20 104.006 16.8215 104.006 12.5982ZM114.786 12.5982C114.786 9.60675 113.158 7.58316 110.626 7.58316C108.094 7.58316 106.465 9.60124 106.465 12.5982C106.465 15.9856 108.293 17.8498 110.626 17.8498C113.284 17.8498 114.786 15.5402 114.786 12.5982Z" fill="white"/>
<path d="M119.33 19.6866V5.77399H121.264L121.489 7.87456C122.341 6.40638 124.074 5.43301 126.055 5.43301C128.886 5.43301 130.793 7.3741 130.793 10.4701V19.6811H128.361V10.5746C128.361 8.78749 127.258 7.6326 125.377 7.6326C123.171 7.6326 121.768 9.23285 121.742 11.2564V19.6811H119.336L119.33 19.6866Z" fill="white"/>
<path d="M132.721 15.7493C132.721 12.5488 135.731 11.9164 138.364 11.6029C140.397 11.394 142.051 11.3665 142.051 10.2667C142.051 8.66643 140.796 7.53909 138.915 7.53909C137.034 7.53909 135.632 8.61699 135.431 10.2172H133.026C133.278 7.40716 135.711 5.43852 138.967 5.43852C142.225 5.43852 144.411 7.48414 144.411 10.4262V17.0141C144.411 17.4594 144.636 17.6683 145.088 17.6683H145.813V19.6866H144.558C143.155 19.6866 142.376 19.0542 142.298 17.8498C142.272 17.7179 142.246 17.5584 142.246 17.4045C141.468 18.9772 139.987 19.923 137.706 19.923C134.676 19.923 132.69 18.3228 132.716 15.7493H132.721ZM142.051 14.226V12.3617C141.526 13.1756 140.118 13.3351 138.568 13.5166C136.814 13.7255 135.133 13.9895 135.133 15.6447C135.133 17.0085 136.288 17.8498 138.116 17.8498C140.422 17.8498 142.051 16.3541 142.051 14.226Z" fill="white"/>
<path d="M147.568 19.6866V0H150V19.6866H147.568Z" fill="white"/>
</svg>
