<svg width="125" height="26" viewBox="0 0 125 26" fill="none" xmlns="http://www.w3.org/2000/svg">
<g clip-path="url(#clip0_2508_1730)">
<mask id="mask0_2508_1730" style="mask-type:luminance" maskUnits="userSpaceOnUse" x="0" y="0" width="18" height="26">
<path d="M18 0H0V26H18V0Z" fill="white"/>
</mask>
<g mask="url(#mask0_2508_1730)">
<path fill-rule="evenodd" clip-rule="evenodd" d="M10.7051 2.04433C11.6567 2.04433 12.5494 2.17102 13.3758 2.40596C12.5667 0.533275 10.8867 0 9.01698 0C7.14363 0 5.46071 0.535371 4.65341 2.41699C5.4738 2.17378 6.36257 2.04433 7.31095 2.04433H10.7051ZM7.09328 3.92444C2.57457 3.92444 0 7.45457 0 11.8092V16.2825C0 16.718 0.366313 17.0625 0.818182 17.0625H17.1818C17.6336 17.0625 18 16.718 18 16.2825V11.8092C18 7.45457 15.0061 3.92444 10.4874 3.92444H7.09328ZM8.9936 11.8479C10.5751 11.8479 11.8572 10.5747 11.8572 9.00416C11.8572 7.43359 10.5751 6.16041 8.9936 6.16041C7.41207 6.16041 6.12997 7.43359 6.12997 9.00416C6.12997 10.5747 7.41207 11.8479 8.9936 11.8479ZM0 19.6917C0 19.2564 0.366313 18.9033 0.818182 18.9033H17.1818C17.6336 18.9033 18 19.2564 18 19.6917V24.4226C18 25.2936 17.2674 25.9997 16.3636 25.9997H1.63636C0.732625 25.9997 0 25.2936 0 24.4226V19.6917Z" fill="white"/>
</g>
</g>
<path d="M26.9949 21.4552V6.73194H33.2624C34.2837 6.73194 35.1592 6.90322 35.8888 7.24577C36.6183 7.58833 37.1754 8.0824 37.5601 8.72799C37.9448 9.3604 38.1371 10.1312 38.1371 11.0402C38.1371 11.6858 37.958 12.3051 37.5999 12.8979C37.2417 13.4777 36.6515 13.9651 35.829 14.3604V12.8584C36.6116 13.1615 37.2152 13.5238 37.6396 13.9454C38.0642 14.367 38.356 14.8281 38.5151 15.3287C38.6743 15.8162 38.7539 16.3301 38.7539 16.8702C38.7539 18.3196 38.2697 19.4461 37.3015 20.2497C36.3331 21.0534 34.9868 21.4552 33.2624 21.4552H26.9949ZM30.0789 18.7872H33.6205C34.244 18.7872 34.7414 18.6094 35.1128 18.2537C35.4842 17.8979 35.6699 17.4368 35.6699 16.8702C35.6699 16.2906 35.4842 15.8228 35.1128 15.4671C34.7414 15.1114 34.244 14.9335 33.6205 14.9335H30.0789V18.7872ZM30.0789 12.2655H33.4812C33.9588 12.2655 34.3368 12.1338 34.6154 11.8703C34.9072 11.5936 35.0531 11.2313 35.0531 10.7833C35.0531 10.3354 34.9072 9.97964 34.6154 9.71613C34.3368 9.43945 33.9588 9.30111 33.4812 9.30111H30.0789V12.2655Z" fill="white"/>
<path d="M43.8759 21.6924C43.0932 21.6924 42.4167 21.5672 41.8464 21.3169C41.276 21.0666 40.8383 20.7108 40.5332 20.2497C40.2281 19.7754 40.0756 19.2155 40.0756 18.5699C40.0756 17.9638 40.2148 17.4302 40.4934 16.9691C40.7719 16.4947 41.1964 16.0995 41.7668 15.7833C42.3505 15.4671 43.0733 15.2432 43.9356 15.1114L47.2583 14.5778V16.7517L44.4728 17.2457C44.0483 17.3248 43.7233 17.4632 43.4979 17.6608C43.2723 17.8452 43.1596 18.1153 43.1596 18.4711C43.1596 18.8004 43.2856 19.0573 43.5376 19.2418C43.7897 19.4262 44.1013 19.5185 44.4728 19.5185C44.9636 19.5185 45.3946 19.4131 45.766 19.2023C46.1375 18.9915 46.4226 18.7082 46.6216 18.3525C46.8338 17.9836 46.94 17.5817 46.94 17.147V14.3407C46.94 13.9322 46.7742 13.5896 46.4425 13.313C46.1242 13.0363 45.6865 12.8979 45.1293 12.8979C44.5988 12.8979 44.1278 13.0429 43.7167 13.3327C43.3187 13.6226 43.0269 14.0047 42.8413 14.479L40.4536 13.3525C40.6659 12.7464 41.0041 12.226 41.4684 11.7912C41.9326 11.3564 42.4897 11.0205 43.1397 10.7833C43.7897 10.5462 44.4993 10.4276 45.2686 10.4276C46.1839 10.4276 46.9931 10.5923 47.696 10.9217C48.3991 11.251 48.9429 11.7122 49.3276 12.3051C49.7255 12.8848 49.9245 13.5633 49.9245 14.3407V21.4552H47.139V19.7162L47.8154 19.5976C47.4971 20.0718 47.1456 20.4671 46.7609 20.7833C46.3762 21.0863 45.9452 21.3103 45.4676 21.4552C44.9901 21.6133 44.4595 21.6924 43.8759 21.6924Z" fill="white"/>
<path d="M57.4458 21.6924C56.358 21.6924 55.3764 21.4487 54.501 20.9612C53.6388 20.4605 52.9491 19.782 52.4318 18.9256C51.9277 18.0692 51.6757 17.1074 51.6757 16.0402C51.6757 14.9731 51.9277 14.0178 52.4318 13.1746C52.9358 12.3182 53.6255 11.6463 54.501 11.1588C55.3764 10.6713 56.358 10.4276 57.4458 10.4276C58.2549 10.4276 59.0043 10.5659 59.6941 10.8426C60.3838 11.1193 60.9741 11.508 61.4649 12.0086C61.9556 12.4961 62.3072 13.0758 62.5194 13.7478L59.9328 14.8545C59.7471 14.3143 59.4288 13.8861 58.9777 13.5699C58.5401 13.2537 58.0294 13.0956 57.4458 13.0956C56.9284 13.0956 56.4642 13.2207 56.053 13.4711C55.655 13.7214 55.3366 14.0705 55.0979 14.5185C54.8724 14.9665 54.7597 15.4803 54.7597 16.06C54.7597 16.6397 54.8724 17.1536 55.0979 17.6015C55.3366 18.0495 55.655 18.3986 56.053 18.6489C56.4642 18.8992 56.9284 19.0244 57.4458 19.0244C58.0426 19.0244 58.5599 18.8663 58.9977 18.5502C59.4354 18.2339 59.7471 17.8057 59.9328 17.2656L62.5194 18.392C62.3204 19.0244 61.9756 19.591 61.4848 20.0917C60.994 20.5922 60.4037 20.9876 59.714 21.2774C59.0242 21.5541 58.2681 21.6924 57.4458 21.6924Z" fill="white"/>
<path d="M64.2769 21.4552V6.49479H67.2614V16.0797L66.1472 15.724L70.9423 10.6647H74.6232L70.6837 15.0126L74.6033 21.4552H71.2209L67.9378 15.9809L69.6689 15.5462L66.3461 19.143L67.2614 17.4237V21.4552H64.2769Z" fill="white"/>
<path d="M75.9352 25.4078V10.6647H78.7207V12.7201L78.462 12.1272C78.8202 11.587 79.3044 11.172 79.9145 10.8821C80.5379 10.5791 81.2476 10.4276 82.0435 10.4276C83.0781 10.4276 84.0132 10.6779 84.849 11.1786C85.6846 11.6792 86.3478 12.3578 86.8386 13.2142C87.3294 14.0574 87.5748 15.006 87.5748 16.06C87.5748 17.1008 87.3294 18.0495 86.8386 18.9058C86.3611 19.7622 85.7045 20.4407 84.8688 20.9414C84.0331 21.4421 83.0847 21.6924 82.0236 21.6924C81.2808 21.6924 80.591 21.5607 79.9543 21.2972C79.3309 21.0205 78.8268 20.6187 78.4421 20.0917L78.9197 19.479V25.4078H75.9352ZM81.6654 19.0244C82.2225 19.0244 82.7133 18.8992 83.1378 18.6489C83.5623 18.3986 83.8939 18.0495 84.1326 17.6015C84.3714 17.1536 84.4908 16.6397 84.4908 16.06C84.4908 15.4803 84.3714 14.9731 84.1326 14.5382C83.8939 14.0903 83.5623 13.7412 83.1378 13.4908C82.7133 13.2273 82.2225 13.0956 81.6654 13.0956C81.1349 13.0956 80.6573 13.2207 80.2329 13.4711C79.8217 13.7214 79.4967 14.0705 79.2579 14.5185C79.0325 14.9665 78.9197 15.4803 78.9197 16.06C78.9197 16.6397 79.0325 17.1536 79.2579 17.6015C79.4967 18.0495 79.8217 18.3986 80.2329 18.6489C80.6573 18.8992 81.1349 19.0244 81.6654 19.0244Z" fill="white"/>
<path d="M92.6853 21.6924C91.9027 21.6924 91.2262 21.5672 90.6558 21.3169C90.0854 21.0666 89.6477 20.7108 89.3426 20.2497C89.0375 19.7754 88.885 19.2155 88.885 18.5699C88.885 17.9638 89.0243 17.4302 89.3028 16.9691C89.5814 16.4947 90.0058 16.0995 90.5762 15.7833C91.1598 15.4671 91.8828 15.2432 92.745 15.1114L96.0677 14.5778V16.7517L93.2822 17.2457C92.8578 17.3248 92.5327 17.4632 92.3072 17.6608C92.0818 17.8452 91.969 18.1153 91.969 18.4711C91.969 18.8004 92.095 19.0573 92.3471 19.2418C92.5991 19.4262 92.9108 19.5185 93.2822 19.5185C93.773 19.5185 94.2041 19.4131 94.5755 19.2023C94.9469 18.9915 95.2321 18.7082 95.431 18.3525C95.6433 17.9836 95.7494 17.5817 95.7494 17.147V14.3407C95.7494 13.9322 95.5836 13.5896 95.252 13.313C94.9337 13.0363 94.4959 12.8979 93.9388 12.8979C93.4082 12.8979 92.9373 13.0429 92.5261 13.3327C92.1282 13.6226 91.8364 14.0047 91.6506 14.479L89.2631 13.3525C89.4752 12.7464 89.8135 12.226 90.2778 11.7912C90.742 11.3564 91.2991 11.0205 91.9491 10.7833C92.5991 10.5462 93.3087 10.4276 94.0781 10.4276C94.9933 10.4276 95.8024 10.5923 96.5055 10.9217C97.2085 11.251 97.7523 11.7122 98.137 12.3051C98.535 12.8848 98.7339 13.5633 98.7339 14.3407V21.4552H95.9484V19.7162L96.6249 19.5976C96.3065 20.0718 95.955 20.4671 95.5704 20.7833C95.1857 21.0863 94.7545 21.3103 94.2771 21.4552C93.7995 21.6133 93.2689 21.6924 92.6853 21.6924Z" fill="white"/>
<path d="M106.255 21.6924C105.167 21.6924 104.186 21.4487 103.31 20.9612C102.448 20.4605 101.758 19.782 101.241 18.9256C100.737 18.0692 100.485 17.1074 100.485 16.0402C100.485 14.9731 100.737 14.0178 101.241 13.1746C101.745 12.3182 102.435 11.6463 103.31 11.1588C104.186 10.6713 105.167 10.4276 106.255 10.4276C107.064 10.4276 107.814 10.5659 108.504 10.8426C109.193 11.1193 109.784 11.508 110.274 12.0086C110.765 12.4961 111.117 13.0758 111.329 13.7478L108.742 14.8545C108.557 14.3143 108.238 13.8861 107.787 13.5699C107.35 13.2537 106.839 13.0956 106.255 13.0956C105.738 13.0956 105.274 13.2207 104.862 13.4711C104.464 13.7214 104.146 14.0705 103.907 14.5185C103.682 14.9665 103.569 15.4803 103.569 16.06C103.569 16.6397 103.682 17.1536 103.907 17.6015C104.146 18.0495 104.464 18.3986 104.862 18.6489C105.274 18.8992 105.738 19.0244 106.255 19.0244C106.852 19.0244 107.369 18.8663 107.807 18.5502C108.245 18.2339 108.557 17.8057 108.742 17.2656L111.329 18.392C111.13 19.0244 110.785 19.591 110.294 20.0917C109.803 20.5922 109.213 20.9876 108.523 21.2774C107.834 21.5541 107.078 21.6924 106.255 21.6924Z" fill="white"/>
<path d="M113.086 21.4552V6.49479H116.071V16.0797L114.957 15.724L119.751 10.6647H123.433L119.493 15.0126L123.413 21.4552H120.03L116.747 15.9809L118.479 15.5462L115.155 19.143L116.071 17.4237V21.4552H113.086Z" fill="white"/>
<defs>
<clipPath id="clip0_2508_1730">
<rect width="18" height="26" fill="white"/>
</clipPath>
</defs>
</svg>
