<svg width="100" height="26" viewBox="0 0 100 26" fill="none" xmlns="http://www.w3.org/2000/svg">
<path d="M91.3475 12.801L86.091 4.85551H89.379L91.3042 7.69945C91.9531 8.67627 92.4938 9.58812 93.0779 10.6735L96.7553 4.85551H99.9785L94.8085 12.7793L100 20.7247H96.7337L94.9599 18.098C94.2677 17.0342 93.7053 16.0791 93.0779 14.9285L89.2275 20.7247H85.9828L91.3475 12.801Z" fill="white"/>
<path d="M80.4568 21.007C77.277 21.007 75.049 18.6842 75.049 15.3626C75.049 11.9978 77.2338 9.67495 80.3703 9.67495C83.5718 9.67495 85.6051 11.8241 85.6051 15.1673V15.9705L77.5582 15.9922C77.7529 17.8809 78.7479 18.8361 80.5001 18.8361C81.9494 18.8361 82.9012 18.2716 83.204 17.2513H85.6483C85.1941 19.5959 83.2473 21.007 80.4568 21.007ZM80.392 11.8458C78.8345 11.8458 77.8827 12.6925 77.6231 14.2989H82.9877C82.9877 12.8227 81.971 11.8458 80.392 11.8458Z" fill="white"/>
<path d="M61.7834 15.1238C61.7834 11.9978 63.8167 9.6532 66.8667 9.6532C68.4675 9.6532 69.7221 10.3262 70.3494 11.4767L70.5008 10.0005H72.9451V20.182C72.9451 23.764 70.8036 26 67.3427 26C64.271 26 62.1728 24.2416 61.8482 21.376H64.4873C64.6603 22.7653 65.7203 23.5903 67.3427 23.5903C69.1597 23.5903 70.3277 22.4397 70.3277 20.6596V18.8795C69.6572 19.8781 68.3377 20.5077 66.8019 20.5077C63.7734 20.5077 61.7834 18.2282 61.7834 15.1238ZM64.444 15.0587C64.444 16.8606 65.5905 18.2065 67.321 18.2065C69.138 18.2065 70.2629 16.9256 70.2629 15.0587C70.2629 13.2351 69.1597 11.976 67.321 11.976C65.5688 11.976 64.444 13.3003 64.444 15.0587Z" fill="white"/>
<path d="M53.3873 21.007C50.294 21.007 48.3688 18.7275 48.3688 15.406C48.3688 12.0629 50.3156 9.67495 53.5388 9.67495C55.0313 9.67495 56.3508 10.3044 57.0214 11.3682V4.57335H59.6388V20.7247H57.2161L57.0431 19.0531C56.394 20.2906 55.0097 21.007 53.3873 21.007ZM53.9714 18.5756C55.8101 18.5756 56.9998 17.2513 56.9998 15.3192C56.9998 13.3871 55.8101 12.0412 53.9714 12.0412C52.1327 12.0412 51.0079 13.4089 51.0079 15.3192C51.0079 17.2296 52.1327 18.5756 53.9714 18.5756Z" fill="white"/>
<path d="M41.7357 21.007C38.556 21.007 36.3279 18.6842 36.3279 15.3626C36.3279 11.9978 38.5127 9.67495 41.6492 9.67495C44.8507 9.67495 46.8841 11.8241 46.8841 15.1673V15.9705L38.8371 15.9922C39.0318 17.8809 40.0269 18.8361 41.779 18.8361C43.2283 18.8361 44.1801 18.2716 44.4829 17.2513H46.9273C46.473 19.5959 44.5262 21.007 41.7357 21.007ZM41.6709 11.8458C40.1134 11.8458 39.1616 12.6925 38.9021 14.2989H44.2666C44.2666 12.8227 43.25 11.8458 41.6709 11.8458Z" fill="white"/>
<path fill-rule="evenodd" clip-rule="evenodd" d="M29.8485 25.9421L14.9242 0L0 25.9421H23.5278H29.8485ZM3.15818 20.4614L18.0755 5.49951L23.5278 25.9421L3.15818 20.4614Z" fill="white"/>
</svg>
