<svg width="87" height="26" viewBox="0 0 87 26" fill="none" xmlns="http://www.w3.org/2000/svg">
<path d="M11.5404 4.6166C6.8868 4.61661 3.11435 8.37467 3.11435 13.0105C3.11436 17.6462 6.88682 21.4042 11.5404 21.4042C15.6619 21.4042 19.0922 18.4564 19.8228 14.5618H11.5399V13.0166C11.5399 13.0166 11.5401 12.9705 11.541 12.8959C11.5423 12.7758 11.5452 12.6562 11.55 12.5369C11.5538 12.4386 11.5591 12.3338 11.5662 12.2317C11.5677 12.2093 11.5695 12.187 11.5712 12.1653C11.5732 12.1378 11.5753 12.1104 11.5775 12.083C11.5787 12.069 11.5798 12.0554 11.581 12.0418C11.5837 12.0091 11.5864 11.9765 11.5894 11.9439C11.6167 11.6431 11.6433 11.4594 11.6433 11.4594H11.6448C12.405 5.84384 17.2353 1.51436 23.0808 1.51435C29.4544 1.51435 34.6213 6.66141 34.6213 13.0106C34.6213 19.3598 29.4544 24.5068 23.0808 24.5068V21.4045C27.7343 21.4045 31.5069 17.6464 31.5069 13.0106C31.5069 8.37483 27.7343 4.61677 23.0808 4.61677C18.9592 4.61678 15.529 7.56472 14.7985 11.4594H23.0804C23.0804 11.4594 23.0809 12.267 23.0809 13.0186C23.0809 13.0268 23.0807 13.0349 23.0806 13.0429C23.063 19.3772 17.9031 24.5066 11.5404 24.5066C5.16679 24.5066 1.40688e-05 19.3596 0 13.0105C0 6.66125 5.16679 1.51419 11.5404 1.51418V4.6166Z" fill="#fafaf7"/>
<path d="M86.7376 15.6502V18.5587H84.9316C83.6445 18.5587 82.6411 18.2577 81.9215 17.656C81.2018 17.0409 80.842 16.0447 80.842 14.6673V8.07708H77.9247V5.1668H80.842V1.47374H83.7834V5.1668H86.7169V8.07708H83.7834V14.7075C83.7834 15.0418 83.8664 15.2825 84.0325 15.4296C84.1986 15.5767 84.4753 15.6502 84.8628 15.6502H86.7376Z" fill="#fafaf7"/>
<path d="M70.0871 14.2244L66.6783 5.23656H63.5251L68.4655 18.5586H70.0871H71.6441L76.8777 5.23656H73.7247L70.0871 14.2244Z" fill="#fafaf7"/>
<path d="M57.7262 7.51627C58.2693 6.78803 58.9481 6.21811 59.7627 5.8065C60.5773 5.37905 61.4824 5.23656 62.4781 5.23656V8.29872C62.4781 8.29872 61.6956 8.27674 61.2019 8.36205C60.9548 8.40471 60.7266 8.46518 60.5132 8.54379C58.9339 9.12565 57.7262 10.7307 57.7262 12.4082C57.7262 14.7408 57.7262 18.5587 57.7262 18.5587H54.8306V5.23656H57.7262V7.51627Z" fill="#fafaf7"/>
<path fill-rule="evenodd" clip-rule="evenodd" d="M46.1284 4.90379C47.0116 4.90379 47.8084 5.08966 48.5185 5.46054C49.2286 5.83151 49.9128 6.3965 50.3631 7.15529V5.23314H53.2753V16.9944C53.2753 19.6419 52.4714 21.556 51.1032 22.7363C49.735 23.9167 48.519 24.5065 46.4928 24.5066C45.0206 24.5066 43.7216 24.203 42.5959 23.596C41.4874 22.9889 40.6989 22.1463 40.2313 21.0671L42.5959 19.6181C43.2713 20.8828 44.8474 21.5657 46.4928 21.5657C47.7741 21.5657 48.6746 21.0502 49.1942 20.3084C49.731 19.5833 50.008 18.4027 50.0253 16.767C49.1247 18.0147 47.8255 18.6381 46.1284 18.6381C45.0375 18.6381 44.016 18.3689 43.0636 17.8295C42.1111 17.2731 41.3401 16.4801 40.7513 15.4516C40.1797 14.4061 39.8934 13.1834 39.8934 11.7837C39.8935 10.3673 40.1797 9.14443 40.7513 8.11585C41.3401 7.07058 42.1112 6.27844 43.0636 5.73892C44.0161 5.1826 45.0374 4.90386 46.1284 4.90379ZM46.5838 7.79567C44.4924 7.79584 42.7966 9.57497 42.7965 11.7694C42.7965 13.9641 44.4923 15.7431 46.5838 15.7433C48.6756 15.7433 50.3713 13.9642 50.3713 11.7694C50.3712 9.57487 48.6755 7.79567 46.5838 7.79567Z" fill="#fafaf7"/>
</svg>
