<svg width="93" height="30" viewBox="0 0 93 30" fill="none" xmlns="http://www.w3.org/2000/svg">
<g clip-path="url(#clip0_4395_8553)">
<path d="M25 25.2842V8.52518H27.0195V23.4824H34.7706V25.2827L25 25.2842ZM36.7199 25.2842V12.7138H38.6409V25.2827L36.7199 25.2842ZM37.696 10.6195C37.335 10.6247 36.9864 10.4867 36.7259 10.2354C36.5984 10.1181 36.4971 9.97491 36.4287 9.81537C36.3603 9.65582 36.3262 9.48352 36.3289 9.3098C36.3289 8.94974 36.4617 8.64169 36.7273 8.38566C36.9873 8.13423 37.3354 7.99573 37.696 8.0001C38.0692 8.0001 38.3897 8.12862 38.6573 8.38566C38.9279 8.64169 39.0632 8.94974 39.0632 9.3098C39.0632 9.66985 38.9279 9.9784 38.6573 10.2354C38.5303 10.3601 38.3798 10.4583 38.2149 10.5242C38.0499 10.5901 37.8736 10.6225 37.696 10.6195ZM46.2905 30.2589C45.362 30.2589 44.564 30.1389 43.8963 29.8989C43.2863 29.6967 42.72 29.3802 42.2276 28.9658C41.8146 28.6155 41.4598 28.2013 41.1769 27.7386L42.7082 26.6585C42.8814 26.8874 43.1012 27.1494 43.3679 27.4445C43.6336 27.7445 43.9968 28.0036 44.4576 28.2216C44.9252 28.4447 45.5362 28.5561 46.2905 28.5561C47.2994 28.5561 48.1324 28.3111 48.789 27.8211C49.4458 27.33 49.7741 26.5603 49.7741 25.5122V22.9603H49.6115C49.4711 23.1903 49.2707 23.4744 49.0099 23.8125C48.7543 24.1455 48.3851 24.4425 47.9025 24.7036C47.4248 24.9606 46.779 25.0892 45.965 25.0892C44.9551 25.0892 44.0485 24.8491 43.2456 24.3691C42.4475 23.8889 41.8151 23.1903 41.3484 22.2733C40.8868 21.3581 40.6559 20.2455 40.6559 18.9352C40.6559 17.6481 40.8812 16.5269 41.332 15.5717C41.7828 14.6116 42.4097 13.8695 43.2127 13.3454C44.0158 12.8163 44.9441 12.5518 45.9979 12.5518C46.8118 12.5518 47.4577 12.6883 47.9353 12.9613C48.4168 13.2284 48.786 13.5334 49.0428 13.8765C49.3024 14.2165 49.5031 14.4951 49.6444 14.7121H49.8399V12.7168H51.6966V25.6458C51.6966 26.726 51.4523 27.6041 50.9638 28.2802C50.4801 28.9613 49.8283 29.4603 49.0085 29.7774C48.1411 30.1103 47.2187 30.2728 46.2905 30.2589ZM46.2247 23.3535C46.996 23.3535 47.6478 23.1764 48.1801 22.8224C48.7114 22.4672 49.1155 21.9572 49.392 21.2921C49.6687 20.626 49.807 19.8294 49.807 18.9022C49.807 17.9971 49.6712 17.198 49.3995 16.5049C49.1289 15.8118 48.7273 15.2687 48.195 14.8756C47.6636 14.4826 47.0069 14.2866 46.2247 14.2876C45.4108 14.2876 44.7327 14.4946 44.1904 14.9086C43.653 15.3227 43.2486 15.8793 42.9769 16.5784C42.7032 17.3218 42.568 18.1096 42.5784 18.9022C42.5784 19.7744 42.7136 20.5464 42.9844 21.2186C43.262 21.8836 43.6695 22.4072 44.2068 22.7894C44.749 23.1653 45.4217 23.3535 46.2247 23.3535ZM56.2178 17.723V25.2842H54.2967V8.52518H56.2178V14.6776H56.3804C56.673 14.0285 57.1127 13.5134 57.6999 13.1324C58.2909 12.7443 59.0776 12.5503 60.0598 12.5503C60.9125 12.5503 61.6588 12.7223 62.2986 13.0664C62.9393 13.4044 63.4364 13.9255 63.7897 14.6296C64.1479 15.3277 64.327 16.2168 64.327 17.297V25.2827H62.4045V17.4275C62.4045 16.4294 62.1469 15.6573 61.6314 15.1112C61.1209 14.5611 60.4129 14.286 59.5074 14.286C58.8775 14.286 58.3129 14.4196 57.8133 14.6866C57.3198 14.9536 56.9292 15.3437 56.6416 15.8568C56.3591 16.3698 56.2178 16.9919 56.2178 17.723ZM72.3632 12.7138V14.3506H65.8823V12.7153L72.3632 12.7138ZM67.7719 9.70285H69.693V21.6822C69.693 22.2283 69.7715 22.6378 69.9288 22.9108C70.0673 23.157 70.286 23.3478 70.5482 23.451C70.802 23.538 71.0705 23.5814 71.3542 23.5814C71.5651 23.5814 71.7388 23.5705 71.8751 23.5485L72.2005 23.4839L72.5915 25.2181C72.4127 25.2788 72.2303 25.3278 72.0452 25.3652C71.7536 25.4255 71.4564 25.4531 71.1587 25.4477C70.6074 25.4455 70.0629 25.3253 69.5616 25.0952C69.0448 24.8614 68.6006 24.4913 68.2765 24.0241C67.9401 23.5439 67.7719 22.9383 67.7719 22.2072V9.70285ZM79.4455 25.5452C78.2406 25.5452 77.2007 25.2781 76.326 24.7441C75.4551 24.1994 74.7573 23.4153 74.3155 22.4847C73.8498 21.5146 73.6164 20.3855 73.6155 19.0972C73.6155 17.81 73.8493 16.6749 74.3169 15.6918C74.7886 14.7056 75.4454 13.937 76.2872 13.3859C77.133 12.8288 78.1206 12.5503 79.25 12.5503C79.9008 12.5503 80.5436 12.6593 81.1785 12.8773C81.8143 13.0964 82.3925 13.4514 82.9128 13.9425C83.4342 14.4266 83.8497 15.0702 84.1592 15.8733C84.4677 16.6744 84.6219 17.6616 84.6219 18.8347V19.6539H74.9841V17.9841H82.6695C82.6695 17.274 82.5282 16.6414 82.2456 16.0863C81.9811 15.543 81.5692 15.0859 81.0575 14.7676C80.5472 14.4466 79.9446 14.286 79.25 14.286C78.4839 14.286 77.8217 14.4766 77.2634 14.8576C76.7091 15.2347 76.2827 15.7258 75.9842 16.3308C75.6858 16.9369 75.5364 17.586 75.5364 18.2781V19.3913C75.5364 20.3414 75.6996 21.1466 76.026 21.8067C76.3573 22.4597 76.8161 22.9588 77.4021 23.3039C77.9873 23.6419 78.6685 23.811 79.4455 23.811C79.9501 23.811 80.4059 23.74 80.8128 23.598C81.2248 23.451 81.5804 23.2324 81.88 22.9424C82.1785 22.6483 82.4089 22.2833 82.571 21.8472L84.4279 22.3708C84.2318 23.0028 83.9034 23.5589 83.4428 24.0391C82.9811 24.5141 82.4109 24.8852 81.7322 25.1522C81 25.4217 80.2252 25.5549 79.4455 25.5452ZM86.6294 25.2842V12.7138H88.4847V14.6131H88.6146C88.8435 13.991 89.2565 13.4859 89.8534 13.0979C90.4505 12.7108 91.1231 12.5173 91.8715 12.5173C92.0128 12.5173 92.1893 12.5203 92.4013 12.5263C92.6133 12.5313 92.7735 12.5393 92.8819 12.5503V14.5156C92.7337 14.4849 92.5844 14.4599 92.4342 14.4406C92.1943 14.4018 91.9517 14.3828 91.7087 14.3836C91.1018 14.3836 90.5594 14.5116 90.0818 14.7676C89.6091 15.0187 89.2345 15.3682 88.9578 15.8163C88.6863 16.2563 88.5505 16.7609 88.5505 17.33V25.2842H86.6294Z" fill="#fafaf7"/>
<path d="M0 29.9984L7.14955 23.8686V0L0 6.46447V29.9984Z" fill="#fafaf7"/>
<path d="M9.32874 30L16.4783 23.882V14.3752L9.32874 20.8216V30Z" fill="#fafaf7"/>
</g>
<defs>
<clipPath id="clip0_4395_8553">
<rect width="93" height="30" fill="#fafaf7"/>
</clipPath>
</defs>
</svg>
