<svg width="227" height="32" viewBox="0 0 227 32" fill="none" xmlns="http://www.w3.org/2000/svg">
<g clip-path="url(#clip0_116120_52806)">
<path d="M18.3324 16.6877C18.4069 16.8649 18.584 17.0048 18.7284 17.1307C21.1603 19.3082 24.1466 21.1872 26.5458 23.3973C29.1222 25.766 29.7092 29.1091 27.5568 32L7.33296 16.007C5.51603 13.9741 6.69004 10.7755 9.43874 10.5377C13.0027 10.2299 17.0652 10.864 20.6245 10.547C22.4275 10.3838 23.4338 8.26693 22.1293 6.91009C21.9802 6.75622 21.2348 6.29461 21.0671 6.29461H9.59876e-06C-0.0186256 3.45504 1.94273 0.979153 4.67278 0.289075C10.0071 0.335702 16.003 -0.265784 21.2954 0.139869C27.9342 0.648102 31.2559 8.76117 26.8254 13.8388C25.7212 15.1024 23.2241 16.6877 21.5143 16.6877H18.3277H18.3324Z" fill="#CAFF5D"/>
<path d="M156.866 5.17557L174.081 22.8332L174.025 5.17557H176.708V25.9665H173.745C168.01 20.1288 162.41 14.1606 156.587 8.41613V25.9665H154.015V5.17557H156.866Z" fill="white"/>
<path d="M226.441 5.17557L214.938 15.4988L227 25.9665H222.919L213.196 17.2473L212.842 17.0374C212.73 17.0281 212.26 17.4151 212.134 17.5224C208.915 20.2454 205.924 23.2528 202.69 25.9618H198.721L210.904 15.4008L199.392 5.17557H203.473L212.958 13.8855L222.476 5.17557H226.446H226.441Z" fill="white"/>
<path d="M150.554 5.17558V18.0865C150.554 18.3197 150.195 19.4481 150.079 19.7371C147.772 25.5841 134.905 25.6075 132.948 19.3734C132.85 19.0657 132.557 17.998 132.557 17.7508V5.17558H129.873V11.5448L128.783 9.45126C124.241 2.78362 109.114 3.14731 106.016 10.8734C105.419 12.3654 105.2 14.1326 105.168 15.7319C105.168 15.8578 105.48 16.9395 105.121 16.795L104.208 15.9231L102.382 14.9532C105.303 13.9834 106.407 10.9293 105.144 8.16436C104.292 6.29462 101.338 5.3481 99.4188 5.17091H58.9012V24.8428L53.0917 17.4058C53.0544 17.1587 53.1243 17.2752 53.2594 17.2426C57.3125 16.3007 59.4137 13.5917 58.2629 9.33003C57.6713 7.13857 54.6663 5.17091 52.4767 5.17091H35.0947V25.9618H37.7782V17.4664H49.7932L56.4087 25.9618H99.5259C101.636 25.6494 104.502 24.8568 105.55 22.8192L106.23 20.8189C107.707 23.8636 111.206 25.5655 114.425 26.1483C120.29 27.2114 128.355 25.4862 130.036 18.9165C132.249 28.1579 147.949 28.89 152.17 21.1546C152.627 20.32 153.228 18.6787 153.228 17.7415V5.17558H150.544H150.554ZM37.7782 15.2376V7.41367H52.3649C53.0358 7.41367 54.6757 8.35086 55.1043 8.92437C56.0686 10.2066 56.0034 12.7897 54.8806 13.9507C54.4055 14.445 52.9193 15.2376 52.2531 15.2376H37.7782ZM85.2793 7.41367H99.4188C100.141 7.41367 101.725 8.06644 102.219 8.63995C103.178 9.759 103.057 11.8665 101.99 12.8923C101.483 13.3772 99.9918 14.0114 99.307 14.0114H85.2793V7.41833V7.41367ZM82.7077 23.6771C82.7077 23.6771 82.5539 23.845 82.5399 23.845H61.5847V16.3567H80.5832V14.1233H61.5847V7.41833H82.7077V23.6818V23.6771ZM103.327 21.1593C102.68 23.2155 100.425 23.7377 98.5289 23.8496C94.322 24.0921 89.8962 23.6538 85.666 23.8496C85.5495 23.8729 85.2793 23.7704 85.2793 23.6771V16.4126C85.2793 16.38 85.4098 16.3007 85.447 16.2448H99.0833C101.795 16.2448 104.241 18.2777 103.327 21.1639V21.1593ZM127.381 18.1658C125.732 26.2556 108.694 26.4747 107.968 16.8556C107.506 10.7661 110.539 7.55355 116.549 7.11059C123.887 6.56972 128.97 10.3698 127.381 18.1658Z" fill="white"/>
<path d="M190.955 5.17557H177.822V25.9665H190.955C195.786 25.407 200.589 23.0243 201.465 17.8114C202.737 10.2439 198.055 6.01485 190.955 5.18023V5.17557ZM197.16 20.9961C193.331 25.1831 185.569 23.4719 180.505 23.845V7.41366C183.813 7.58151 187.335 7.18985 190.619 7.41366C192.744 7.5582 195.698 8.53736 197.156 10.1553C199.466 12.7245 199.504 18.4362 197.16 20.9961Z" fill="white"/>
</g>
<defs>
<clipPath id="clip0_116120_52806">
<rect width="227" height="32" fill="white"/>
</clipPath>
</defs>
</svg>
